<svg xmlns="http://www.w3.org/2000/svg" width="1000" height="650" viewBox="0 0 1000 650" role="img" aria-labelledby="titulo descricao">
<title id="titulo">01 / Essencial — proposta 1 para cards do Azy Board</title>
<desc id="descricao">Cards com ícone configurável, breadcrumb, código, título, tags e metadados em faixas separadas.</desc>
<rect x="0" y="0" width="1000" height="650" rx="0" fill="#F5F7FB" stroke="none" stroke-width="1"/>
<rect x="40" y="35" width="920" height="580" rx="20" fill="#FFFFFF" stroke="#E4E9F1" stroke-width="1"/>
<rect x="64" y="62" width="45" height="25" rx="12.5" fill="#3569DA" stroke="none" stroke-width="1"/><text x="86.5" y="78.35" font-family="Arial, sans-serif" font-size="11" font-weight="700" fill="#FFFFFF" text-anchor="middle">01</text>
<text x="124" y="83" font-family="Arial, sans-serif" font-size="27" font-weight="700" fill="#14223B" text-anchor="start">01 / Essencial</text>
<text x="64" y="115" font-family="Arial, sans-serif" font-size="13" font-weight="400" fill="#61708A" text-anchor="start">Título em primeiro plano; metadados em posições previsíveis.</text>
<rect x="64" y="145" width="292" height="438" rx="12" fill="#F1F4F9" stroke="#DCE3EC" stroke-width="1"/>
<rect x="64" y="145" width="292" height="44" rx="12" fill="#FFFFFF" stroke="none" stroke-width="1"/>
<rect x="64" y="177" width="292" height="12" rx="0" fill="#FFFFFF" stroke="none" stroke-width="1"/>
<path d="M64 189H356" stroke="#DCE3EC" stroke-width="1"/>
<circle cx="84" cy="168" r="3" fill="#29B979" stroke="none" stroke-width="1"/>
<text x="95" y="172" font-family="Arial, sans-serif" font-size="11" font-weight="700" fill="#253553" text-anchor="start" letter-spacing="1.1">CONCLUÍDAS</text>
<rect x="316" y="156" width="23" height="23" rx="11.5" fill="#E9EDF4" stroke="none" stroke-width="1"/><text x="327.5" y="171.0" font-family="Arial, sans-serif" font-size="10" font-weight="700" fill="#61708A" text-anchor="middle">16</text>
<rect x="388" y="145" width="548" height="438" rx="12" fill="#FAFBFD" stroke="#E6EAF1" stroke-width="1"/>
<text x="417" y="185" font-family="Arial, sans-serif" font-size="11" font-weight="700" fill="#3569DA" text-anchor="start" letter-spacing="1.5">IDEIA CENTRAL</text>
<rect x="76" y="202" width="268" height="180" rx="10" fill="#FFFFFF" stroke="#D6DEEA" stroke-width="1"/>
<rect x="76" y="202" width="3" height="180" rx="1" fill="#D13C42" stroke="none" stroke-width="1"/>
<circle cx="91" cy="222" r="1.1" fill="#9CA9BC" stroke="none" stroke-width="1"/><circle cx="91" cy="227" r="1.1" fill="#9CA9BC" stroke="none" stroke-width="1"/><circle cx="91" cy="232" r="1.1" fill="#9CA9BC" stroke="none" stroke-width="1"/><circle cx="95" cy="222" r="1.1" fill="#9CA9BC" stroke="none" stroke-width="1"/><circle cx="95" cy="227" r="1.1" fill="#9CA9BC" stroke="none" stroke-width="1"/><circle cx="95" cy="232" r="1.1" fill="#9CA9BC" stroke="none" stroke-width="1"/>
<rect x="108" y="213" width="23" height="23" rx="6" fill="#FFFFFF" stroke="#8055BE" stroke-width="1.4"/><path d="M119.5 217l1.8 5.3 5.5 2-5.5 1.9-1.8 5.3-1.8-5.3-5.5-1.9 5.5-2z" fill="none" stroke="#8055BE" stroke-width="1.5" stroke-linejoin="round"/>
<text x="139" y="229" font-family="Arial, sans-serif" font-size="11" font-weight="700" fill="#5F6D83" text-anchor="start">B2</text>
<text x="109" y="255" font-family="Arial, sans-serif" font-size="10" font-weight="500" fill="#7B879A" text-anchor="start">Fluxo contínuo</text>
<text x="109" y="284" font-family="Arial, sans-serif" font-size="15" font-weight="700" fill="#15233D" text-anchor="start">Filtro por Sprint não</text>
<text x="109" y="304" font-family="Arial, sans-serif" font-size="15" font-weight="700" fill="#15233D" text-anchor="start">está funcionando</text>
<rect x="109" y="315" width="61" height="20" rx="10.0" fill="#F1F3F8" stroke="none" stroke-width="1"/><text x="139.5" y="328.5" font-family="Arial, sans-serif" font-size="10" font-weight="700" fill="#51617A" text-anchor="middle">Sprint</text>
<rect x="270" y="315" width="60" height="20" rx="10.0" fill="#FCEDEF" stroke="none" stroke-width="1"/><text x="300.0" y="328.15" font-family="Arial, sans-serif" font-size="9" font-weight="700" fill="#D13C42" text-anchor="middle">BUG</text>
<path d="M109 343H330" stroke="#E0E5EF" stroke-width="1"/>
<text x="109" y="365" font-family="Arial, sans-serif" font-size="10" font-weight="700" fill="#2758A9" text-anchor="start">MÉDIA</text>
<text x="168" y="365" font-family="Arial, sans-serif" font-size="10" font-weight="700" fill="#60708A" text-anchor="start">3 pt</text>
<circle cx="315" cy="361" r="13" fill="#D7EAE5" stroke="none" stroke-width="1"/><circle cx="315" cy="361" r="13" fill="none" stroke="#FFFFFF" stroke-width="2"/><text x="315" y="365" font-family="Arial, sans-serif" font-size="10" font-weight="700" fill="#1E6556" text-anchor="middle">JS</text>
<rect x="76" y="391" width="268" height="180" rx="10" fill="#FFFFFF" stroke="#9FB3D7" stroke-width="1"/>
<rect x="76" y="391" width="3" height="180" rx="1" fill="#3569DA" stroke="none" stroke-width="1"/>
<circle cx="91" cy="411" r="1.1" fill="#9CA9BC" stroke="none" stroke-width="1"/><circle cx="91" cy="416" r="1.1" fill="#9CA9BC" stroke="none" stroke-width="1"/><circle cx="91" cy="421" r="1.1" fill="#9CA9BC" stroke="none" stroke-width="1"/><circle cx="95" cy="411" r="1.1" fill="#9CA9BC" stroke="none" stroke-width="1"/><circle cx="95" cy="416" r="1.1" fill="#9CA9BC" stroke="none" stroke-width="1"/><circle cx="95" cy="421" r="1.1" fill="#9CA9BC" stroke="none" stroke-width="1"/>
<rect x="108" y="402" width="23" height="23" rx="6" fill="#FFFFFF" stroke="#D47C27" stroke-width="1.4"/><path d="M121 406l-5 8h4l-1 7 5-9h-4z" fill="none" stroke="#D47C27" stroke-width="1.5" stroke-linejoin="round"/>
<text x="139" y="418" font-family="Arial, sans-serif" font-size="11" font-weight="700" fill="#5F6D83" text-anchor="start">T10</text>
<rect x="246" y="401" width="26" height="26" rx="5" fill="#F8FAFD" stroke="#D9E1EC" stroke-width="1"/><rect x="274" y="401" width="26" height="26" rx="5" fill="#F8FAFD" stroke="#D9E1EC" stroke-width="1"/><rect x="302" y="401" width="26" height="26" rx="5" fill="#F8FAFD" stroke="#D9E1EC" stroke-width="1"/><path d="M256 408h7v9h-7z M253 411h2m7 7v2h-9v-8" fill="none" stroke="#53647E" stroke-width="1.3" stroke-linejoin="round"/><path d="M281 409h12v3h-12z M283 412v7h8v-7m-6 3h4" fill="none" stroke="#53647E" stroke-width="1.3" stroke-linejoin="round"/><path d="M310 410h10m-8-2h6m-7 4 1 8h7l1-8m-6 2v4m3-4v4" fill="none" stroke="#C44B55" stroke-width="1.3" stroke-linecap="round"/>
<text x="109" y="444" font-family="Arial, sans-serif" font-size="10" font-weight="500" fill="#7B879A" text-anchor="start">Fluxo contínuo</text>
<text x="109" y="473" font-family="Arial, sans-serif" font-size="15" font-weight="700" fill="#15233D" text-anchor="start">Campos adicionais</text>
<text x="109" y="493" font-family="Arial, sans-serif" font-size="15" font-weight="700" fill="#15233D" text-anchor="start">nos anexos</text>
<rect x="109" y="504" width="61" height="20" rx="10.0" fill="#F1F3F8" stroke="none" stroke-width="1"/><text x="139.5" y="517.5" font-family="Arial, sans-serif" font-size="10" font-weight="700" fill="#51617A" text-anchor="middle">Anexos</text>
<rect x="270" y="504" width="60" height="20" rx="10.0" fill="#EBF1FF" stroke="none" stroke-width="1"/><text x="300.0" y="517.15" font-family="Arial, sans-serif" font-size="9" font-weight="700" fill="#3569DA" text-anchor="middle">TAREFA</text>
<path d="M109 532H330" stroke="#E0E5EF" stroke-width="1"/>
<text x="109" y="554" font-family="Arial, sans-serif" font-size="10" font-weight="700" fill="#2758A9" text-anchor="start">MÉDIA</text>
<text x="168" y="554" font-family="Arial, sans-serif" font-size="10" font-weight="700" fill="#60708A" text-anchor="start">5 pt</text>
<path d="M222 543v8h8m-8-4h8" fill="none" stroke="#64748B" stroke-width="1.4" stroke-linecap="round"/><text x="234" y="554" font-family="Arial, sans-serif" font-size="10" font-weight="700" fill="#64748B" text-anchor="start">2</text>
<circle cx="315" cy="550" r="13" fill="#D7EAE5" stroke="none" stroke-width="1"/><circle cx="315" cy="550" r="13" fill="none" stroke="#FFFFFF" stroke-width="2"/><text x="315" y="554" font-family="Arial, sans-serif" font-size="10" font-weight="700" fill="#1E6556" text-anchor="middle">JS</text>
<text x="417" y="222" font-family="Arial, sans-serif" font-size="19" font-weight="700" fill="#1B2944" text-anchor="start">Uma ordem visual estável para todos os cards.</text>
<circle cx="429" cy="273" r="12" fill="#EAF0F7" stroke="none" stroke-width="1"/>
<text x="429" y="277" font-family="Arial, sans-serif" font-size="11" font-weight="700" fill="#31415E" text-anchor="middle">1</text>
<text x="452" y="277" font-family="Arial, sans-serif" font-size="15" font-weight="700" fill="#1B2944" text-anchor="start">Ícone configurável</text>
<text x="452" y="299" font-family="Arial, sans-serif" font-size="12" font-weight="400" fill="#60708A" text-anchor="start">Figura e cor ficam ao lado do código do card.</text>
<circle cx="429" cy="344" r="12" fill="#EAF0F7" stroke="none" stroke-width="1"/>
<text x="429" y="348" font-family="Arial, sans-serif" font-size="11" font-weight="700" fill="#31415E" text-anchor="middle">2</text>
<text x="452" y="348" font-family="Arial, sans-serif" font-size="15" font-weight="700" fill="#1B2944" text-anchor="start">Contexto e título</text>
<text x="452" y="370" font-family="Arial, sans-serif" font-size="12" font-weight="400" fill="#60708A" text-anchor="start">Breadcrumb precede o título, mesmo em hierarquias.</text>
<circle cx="429" cy="415" r="12" fill="#EAF0F7" stroke="none" stroke-width="1"/>
<text x="429" y="419" font-family="Arial, sans-serif" font-size="11" font-weight="700" fill="#31415E" text-anchor="middle">3</text>
<text x="452" y="419" font-family="Arial, sans-serif" font-size="15" font-weight="700" fill="#1B2944" text-anchor="start">Ações no hover</text>
<text x="452" y="441" font-family="Arial, sans-serif" font-size="12" font-weight="400" fill="#60708A" text-anchor="start">84 px no topo; tipo desce para a linha da tag.</text>
<rect x="417" y="482" width="490" height="67" rx="9" fill="#EDF3FF" stroke="none" stroke-width="1"/>
<text x="437" y="507" font-family="Arial, sans-serif" font-size="13" font-weight="700" fill="#244B93" text-anchor="start">No segundo card: copiar · arquivar · excluir</text>
<text x="437" y="529" font-family="Arial, sans-serif" font-size="12" font-weight="400" fill="#4F648B" text-anchor="start">Breadcrumb, título e metadados seguem visíveis.</text>
<text x="64" y="608" font-family="Arial, sans-serif" font-size="11" font-weight="400" fill="#8290A5" text-anchor="start">Azy Board  ·  T32  ·  estudo de layout  ·  largura da coluna: 292 px</text>
</svg>